<?xml version="1.0" ?><!DOCTYPE svg  PUBLIC '-//W3C//DTD SVG 1.1//EN'  'http://www.w3.org/Graphics/SVG/1.1/DTD/svg11.dtd'><svg enable-background="new 0 0 500 500" height="500px" id="Layer_1" version="1.1" viewBox="0 0 500 500" width="500px" xml:space="preserve" xmlns="http://www.w3.org/2000/svg" xmlns:xlink="http://www.w3.org/1999/xlink"><g><path d="M104.87,215.812l37.967,23.981c0.806,0.509,1.732,0.772,2.67,0.772c0.383,0,0.769-0.044,1.147-0.134   c1.307-0.308,2.435-1.129,3.13-2.277l22.98-37.966c1.192-1.969,0.886-4.497-0.742-6.124l-38.965-38.969   c-1.18-1.181-2.874-1.696-4.509-1.369c-1.637,0.325-3.004,1.445-3.644,2.987l-21.982,52.953   C101.988,211.917,102.811,214.512,104.87,215.812z" stroke="#ffffff" stroke-width="4" fill="none"/><path d="M325.572,200.189l22.98,37.966c0.695,1.148,1.823,1.97,3.13,2.277c0.379,0.09,0.764,0.134,1.147,0.134   c0.938,0,1.864-0.264,2.67-0.772l37.967-23.981c2.059-1.301,2.882-3.896,1.948-6.145l-21.982-52.953   c-0.64-1.542-2.007-2.662-3.644-2.987c-1.64-0.326-3.329,0.188-4.509,1.369l-38.965,38.969   C324.687,195.692,324.38,198.221,325.572,200.189z" stroke="#ffffff" stroke-width="4" fill="none"/><rect stroke="#ffffff" stroke-width="4" fill="none" height="34" width="304" x="97" y="397"/><path d="M462.026,192c-0.001,0-0.002,0-0.004,0s-0.003,0-0.004,0c-0.006,0-0.012,0-0.019,0   c-0.042,0-0.084,0-0.126,0c-0.004,0-0.009,0-0.013,0c-0.002,0-0.003,0-0.005,0c-2.165,0-4.163,0.646-5.786,1.844l-107.215,77.039   l-92.326-121.052c-1.891-2.481-4.833-3.831-7.954-3.831c-0.003,0-0.006,0-0.01,0c-3.124,0-6.067,1.333-7.956,3.821l-91.825,120.923   L41.992,193.737c-1.748-1.26-3.798-1.904-5.847-1.904c-2.147,0-4.292,0.681-6.085,2.056c-3.502,2.686-4.831,7.345-3.268,11.473   l63.482,167.932c1.472,3.888,5.195,6.707,9.352,6.707h298.892c4.157,0,7.881-2.822,9.353-6.71l63.374-167.548   c0.488-1.178,0.758-2.429,0.758-3.783C472.002,196.443,467.54,192,462.026,192z M249.5,334.728L217.311,288.5l32.189-46.229   l32.188,46.229L249.5,334.728z" stroke="#ffffff" stroke-width="4" fill="none"/><polygon stroke="#ffffff" stroke-width="4" fill="none" points="412.062,130.076 420.709,103.779 447.004,95.131 420.709,86.49 412.062,60.189 403.418,86.49    377.121,95.131 403.418,103.779  "/><polygon stroke="#ffffff" stroke-width="4" fill="none" points="336.893,75.092 342.951,56.664 361.379,50.605 342.951,44.547 336.893,26.117 330.834,44.547    312.406,50.605 330.834,56.664  "/></g></svg>
